<?xml version="1.0" standalone="no"?><!DOCTYPE svg PUBLIC "-//W3C//DTD SVG 1.1//EN" "http://www.w3.org/Graphics/SVG/1.1/DTD/svg11.dtd"><svg t="1525745566157" class="icon" style="" viewBox="0 0 1024 1024" version="1.1" xmlns="http://www.w3.org/2000/svg" p-id="1539" xmlns:xlink="http://www.w3.org/1999/xlink" width="200" height="200"><defs><style type="text/css"></style></defs><path d="M684.9546666666666 962.7893333333334H644.0746666666668V676.9397333333333c0-31.533866666666665-35.44853333333333-62.519466666666666-71.43893333333334-62.519466666666666H450.20799999999997c-36.10026666666667 0-71.43786666666666 30.986666666666668-71.43786666666666 62.519466666666666v285.84959999999995h-40.88V676.9397333333333c0-59.151999999999994 59.25866666666666-103.4048 112.3168-103.4048H572.7466666666667c53.05813333333333 0 112.31786666666666 44.2528 112.31786666666666 103.4048v285.84959999999995h-0.10986666666666665z m0 0" p-id="1540"></path><path d="M831.6330666666665 983.2266666666667H191.21066666666667c-49.68853333333333 0-90.02453333333332-45.77493333333334-90.02453333333332-102.096V370.64639999999997h40.88V881.1306666666667c0 33.16373333333333 22.509866666666667 61.2192 49.144533333333335 61.2192h640.4223999999999c26.635733333333334 0 49.145599999999995-28.055466666666664 49.145599999999995-61.2192V370.64639999999997h40.88V881.1306666666667c0.0010666666666666667 56.21013333333334-40.44906666666667 102.096-90.0256 102.096z m0 0" p-id="1541"></path><path d="M981.0250666666666 459.0432a20.1696 20.1696 0 0 1-12.9376-4.676266666666667L539.2586666666666 100.56c-27.835733333333334-22.612266666666667-27.835733333333334-22.612266666666667-55.77813333333334 0.11093333333333333L54.756266666666704 454.36693333333335c-8.695466666666666 7.1765333333333325-21.527466666666665 5.8709333333333324-28.70613333333333-2.718933333333333-7.172266666666666-8.695466666666666-5.9776-21.528533333333332 2.7178666666666667-28.7008l428.83093333333335-353.92c44.797866666666664-36.42346666666666 62.849066666666666-36.42346666666666 107.53386666666667-0.10666666666666667l428.9418666666666 353.9136c8.695466666666666 7.1776 9.890133333333333 20.005333333333333 2.718933333333333 28.70613333333333-4.024533333333333 5.002666666666667-9.895466666666666 7.502933333333333-15.768533333333332 7.502933333333333z m0 0" p-id="1542"></path></svg>