<?xml version="1.0" standalone="no"?><!DOCTYPE svg PUBLIC "-//W3C//DTD SVG 1.1//EN" "http://www.w3.org/Graphics/SVG/1.1/DTD/svg11.dtd"><svg t="1525746843306" class="icon" style="" viewBox="0 0 1024 1024" version="1.1" xmlns="http://www.w3.org/2000/svg" p-id="10680" xmlns:xlink="http://www.w3.org/1999/xlink" width="200" height="200"><defs><style type="text/css"></style></defs><path d="M64.5 931.1h895.6v29.2H64.5z" p-id="10681"></path><path d="M853.3 436.5v493.8H697.9V436.5h155.4m0-29.3H697.9c-16.2 0-29.2 13.1-29.2 29.2v523.1h213.9v-523c-0.1-16.2-13.2-29.3-29.3-29.3z" p-id="10682"></path><path d="M639.4 239.8c16.1 0 29.2 13.1 29.2 29.2v662H171.4V269c0-16.1 13.1-29.2 29.2-29.2h438.8m0-29.3H200.7c-32.2 0-58.5 26.3-58.5 58.5v691.2h555.7V269c0-32.1-26.3-58.5-58.5-58.5zM346.9 122.8h146.2V152H346.9z" p-id="10683"></path><path d="M219.9 570.1h409.5v29.2H219.9zM697 481.1h116.3v29.2H697zM697 570.1h116.3v29.2H697zM697 656h53.8v29.2H697zM219.9 306.5h409.5v29.2H219.9zM219.9 394.3h409.5v29.2H219.9zM219.9 481.1h409.5v29.2H219.9zM405.4 64.3h29.2v146.2h-29.2z" p-id="10684"></path></svg>